<?xml version="1.0" encoding="utf-8"?>
<!-- Generator: Adobe Illustrator 27.9.0, SVG Export Plug-In . SVG Version: 6.00 Build 0)  -->
<svg version="1.1" id="Layer_1" xmlns="http://www.w3.org/2000/svg" xmlns:xlink="http://www.w3.org/1999/xlink" x="0px" y="0px"
	 viewBox="0 0 1920 2200" style="enable-background:new 0 0 1920 2200;" xml:space="preserve">
<style type="text/css">
	.st0{fill:#F1F1F1;}
</style>
<g>
	<g>
		<path class="st0" d="M0,0v2200h1920V0H0z M1151.2,979.1l21.6,42.3l21.5-42.3h21.2l-33.5,61.5v28.2h-20v-28.2l-33.5-61.5H1151.2z
			 M1084,1031.2c-19.5-3.6-30-11.7-30-28.5c0-16.2,16.1-25.9,36.3-25.9c20,0,35,12.2,36,29.3h-20.7c-1.2-7.8-7-12.5-16.6-12.5
			c-9.4,0-14.5,3.7-14.5,9.1c0,6.7,6.9,9,24.4,12.6c20.7,4.3,27.7,14.5,27.7,27.9c0,17.2-16.2,27.6-36.2,27.6
			c-22.1,0-38.3-12-39.2-31.1h20.6c1.1,8.6,8.6,14.3,20,14.3c8.1,0,14.2-4.1,14.2-9.9C1106,1037.1,1100,1034.2,1084,1031.2z
			 M1001.1,1031.2c-19.5-3.6-30-11.7-30-28.5c0-16.2,16.1-25.9,36.3-25.9c20,0,35,12.2,36,29.3h-20.7c-1.2-7.8-7-12.5-16.6-12.5
			c-9.3,0-14.5,3.7-14.5,9.1c0,6.7,6.9,9,24.4,12.6c20.7,4.3,27.7,14.5,27.7,27.9c0,17.2-16.2,27.6-36.2,27.6
			c-22.1,0-38.3-12-39.2-31.1h20.6c1.1,8.6,8.6,14.3,20,14.3c8.1,0,14.2-4.1,14.2-9.9C1023.1,1037.1,1017,1034.2,1001.1,1031.2z
			 M787.7,979.1H866v17.7h-29.2v71.9h-20v-71.9h-29.2V979.1z M739.6,1031.2c-19.5-3.6-30-11.7-30-28.5c0-16.2,16.1-25.9,36.3-25.9
			c20,0,35,12.2,36,29.3h-20.7c-1.2-7.8-7-12.5-16.6-12.5c-9.4,0-14.5,3.7-14.5,9.1c0,6.7,6.9,9,24.4,12.6
			c20.7,4.3,27.7,14.5,27.7,27.9c0,17.2-16.2,27.6-36.2,27.6c-22.1,0-38.3-12-39.2-31.1h20.6c1.1,8.6,8.6,14.3,20,14.3
			c8.1,0,14.2-4.1,14.2-9.9C761.6,1037.1,755.6,1034.2,739.6,1031.2z M405.5,1203c-27.6,0-48-19.9-48-47.1c0-27.2,20.4-47.1,48-47.1
			c24.6,0,41.1,14.9,44.8,33.8h-20.2c-2.1-8.6-11.2-15.4-24.1-15.4c-16.3,0-28.4,12-28.4,28.7c0,16.6,12.1,28.7,28.4,28.7
			c12.9,0,23.4-8.5,25-16.6h20.2C448.4,1186,430.4,1203,405.5,1203z M507.2,1203c-27.8,0-48.4-19.9-48.4-47.1
			c0-27.2,20.6-47.1,48.4-47.1s48.4,19.9,48.4,47.1C555.6,1183,535,1203,507.2,1203z M632.3,1200.8h-64.8v-89.7h20v71.9h44.8V1200.8
			z M707.2,1200.8h-64.8v-89.7h20v71.9h44.8V1200.8z M780.9,1200.8l-6.3-17.4h-34.8l-6.3,17.4h-20.7l34.8-89.7h20.8l34.8,89.7H780.9
			z M854.5,1200.8h-42.2v-89.7h38.9c19.9,0,31.1,10.3,31.1,26.7c0,6.4-4.3,13.6-10.4,16c8.6,2.8,14.6,11.1,14.6,19.8
			C886.5,1190.2,874.6,1200.8,854.5,1200.8z M875.7,1029v-49.9h20v49.9c0,14.3,7.9,23.9,21,23.9c13.1,0,21-9.6,21-23.9v-49.9h20
			v49.9c0,25.4-16.4,41.9-41,41.9S875.7,1054.5,875.7,1029z M942.7,1203c-27.8,0-48.4-19.9-48.4-47.1c0-27.2,20.6-47.1,48.4-47.1
			c27.8,0,48.4,19.9,48.4,47.1C991.1,1183,970.5,1203,942.7,1203z M1056.3,1200.8l-17.4-28.3h-16v28.3h-20v-89.7h36.1
			c22.8,0,36.1,12.1,36.1,30.7c0,12.3-5.8,21.8-16.4,26.7l20.8,32.2H1056.3z M1151,1200.8l-6.3-17.4H1110l-6.3,17.4H1083l34.8-89.7
			h20.8l34.8,89.7H1151z M1242.6,1128.8h-29.2v71.9h-20v-71.9h-29.2v-17.7h78.3V1128.8z M1273.4,1200.8h-20v-89.7h20V1200.8z
			 M1333.7,1203c-27.8,0-48.4-19.9-48.4-47.1c0-27.2,20.6-47.1,48.4-47.1s48.4,19.9,48.4,47.1C1382.1,1183,1361.6,1203,1333.7,1203z
			 M1475.5,1199.7h-16.7l-44.8-53.9v55h-20v-89.7h16.7l44.8,53.9v-55h20V1199.7z M1526.3,1203c-22.1,0-38.3-12-39.2-31.1h20.6
			c1.1,8.6,8.6,14.3,20,14.3c8.1,0,14.2-4.1,14.2-9.9c0-7.2-6-10-22-13c-19.5-3.6-30-11.7-30-28.5c0-16.2,16.1-25.9,36.3-25.9
			c20,0,35,12.2,36,29.3h-20.7c-1.2-7.8-7-12.5-16.6-12.5c-9.4,0-14.5,3.7-14.5,9.1c0,6.7,6.9,9,24.4,12.6
			c20.7,4.3,27.7,14.5,27.7,27.9C1562.5,1192.5,1546.4,1203,1526.3,1203z"/>
	</g>
	<g>
		<path class="st0" d="M862.3,1137.8c0-6.3-4.4-9.7-12-9.7h-18v19.2h18C857.9,1147.4,862.3,1144.1,862.3,1137.8z"/>
	</g>
	<g>
		<path class="st0" d="M1038.2,1128.8H1023v26h15.2c10.6,0,16.9-4.5,16.9-13C1055.1,1133.3,1048.7,1128.8,1038.2,1128.8z"/>
	</g>
	<g>
		<polygon class="st0" points="1116.1,1166 1138.6,1166 1127.4,1134.8 		"/>
	</g>
	<g>
		<polygon class="st0" points="746,1166 768.4,1166 757.2,1134.8 		"/>
	</g>
	<g>
		<path class="st0" d="M1333.7,1126.8c-16.3,0-28.4,12.1-28.4,29c0,16.8,12.1,29,28.4,29s28.4-12.2,28.4-29
			C1362.1,1138.9,1350,1126.8,1333.7,1126.8z"/>
	</g>
	<g>
		<path class="st0" d="M507.2,1126.8c-16.3,0-28.4,12.1-28.4,29c0,16.8,12.1,29,28.4,29s28.4-12.2,28.4-29
			C535.6,1138.9,523.5,1126.8,507.2,1126.8z"/>
	</g>
	<g>
		<path class="st0" d="M853.6,1163.5h-21.3v20.2h21.3c7.9,0,12.9-3.5,12.9-10.1C866.4,1167,861.5,1163.5,853.6,1163.5z"/>
	</g>
	<g>
		<path class="st0" d="M942.7,1126.8c-16.3,0-28.4,12.1-28.4,29c0,16.8,12.1,29,28.4,29c16.3,0,28.4-12.2,28.4-29
			C971.1,1138.9,959,1126.8,942.7,1126.8z"/>
	</g>
</g>
</svg>
