<?xml version="1.0" encoding="utf-8"?>
<!-- Generator: Adobe Illustrator 27.9.0, SVG Export Plug-In . SVG Version: 6.00 Build 0)  -->
<svg width="1187" height="290" version="1.1" id="Layer_1" xmlns="http://www.w3.org/2000/svg" xmlns:xlink="http://www.w3.org/1999/xlink" x="0px" y="0px"
	 viewBox="0 0 1187 290" style="enable-background:new 0 0 1187 290;" xml:space="preserve">
<style type="text/css">
	.stussyTitleSvg{fill:#00000B;}
</style>
<g>
	<path class="stussyTitleSvg" d="M6,251.1l31.1-37.8c16.3,13.8,37.5,23.4,55.7,23.4c20.3,0,29.8-7.7,29.8-20c0-13.2-12.6-17.5-32.3-25.8
		l-29.2-12.3c-24-9.5-46.4-29.5-46.4-62.7c0-38.4,34.4-69.2,83-69.2c26.5,0,54.4,10.2,74.4,30.1l-27.4,34.4
		c-15.1-11.4-29.2-17.5-47.1-17.5c-16.9,0-27.4,6.8-27.4,19.1c0,12.6,14.5,17.5,34.8,25.5l28.6,11.4c28.3,11.4,45.2,30.5,45.2,62.7
		c0,38.1-32,71.7-87.4,71.7C61.7,284,29.7,272.9,6,251.1z"/>
	<path class="stussyTitleSvg" d="M254.2,96.4h-61.8V50.8h179v45.5h-62.1v183.3h-55.1V96.4z"/>
	<path class="st0" d="M405.6,172V50.8h54.8v127c0,43.4,12.9,58.8,38.1,58.8c24.9,0,38.8-15.4,38.8-58.8v-127h52.9V172
		c0,77.2-30.8,112-91.7,112C437.2,284,405.6,249.2,405.6,172z"/>
	<path class="stussyTitleSvg" d="M623.3,251.1l31.1-37.8c16.3,13.8,37.5,23.4,55.7,23.4c20.3,0,29.8-7.7,29.8-20c0-13.2-12.6-17.5-32.3-25.8
		l-29.2-12.3c-24-9.5-46.4-29.5-46.4-62.7c0-38.4,34.4-69.2,83-69.2c26.5,0,54.4,10.2,74.4,30.1l-27.4,34.4
		C747,99.8,732.8,93.6,715,93.6c-16.9,0-27.4,6.8-27.4,19.1c0,12.6,14.5,17.5,34.8,25.5l28.6,11.4c28.3,11.4,45.2,30.5,45.2,62.7
		c0,38.1-32,71.7-87.4,71.7C679,284,647,272.9,623.3,251.1z"/>
	<path class="stussyTitleSvg" d="M813.1,251.1l31.1-37.8c16.3,13.8,37.5,23.4,55.7,23.4c20.3,0,29.8-7.7,29.8-20c0-13.2-12.6-17.5-32.3-25.8
		l-29.2-12.3c-24-9.5-46.4-29.5-46.4-62.7c0-38.4,34.4-69.2,83-69.2c26.5,0,54.4,10.2,74.4,30.1l-27.4,34.4
		c-15.1-11.4-29.2-17.5-47.1-17.5c-16.9,0-27.4,6.8-27.4,19.1c0,12.6,14.5,17.5,34.8,25.5l28.6,11.4C969.1,161,986,180,986,212.3
		c0,38.1-32,71.7-87.4,71.7C868.8,284,836.8,272.9,813.1,251.1z"/>
	<path class="stussyTitleSvg" d="M1057,198.8L988.1,50.8h58.4l19.1,50.8c6.2,17.2,12,33.2,18.5,51.1h1.2c6.5-17.8,12.6-33.8,19.1-51.1
		l19.1-50.8h57.5l-69.2,147.9v80.9H1057V198.8z"/>
	<g>
		<circle class="stussyTitleSvg" cx="464.8" cy="21" r="15"/>
		<circle class="stussyTitleSvg" cx="530.8" cy="21" r="15"/>
	</g>
</g>
</svg>
