<?xml version="1.0" encoding="utf-8"?>
<!-- Generator: Adobe Illustrator 27.9.0, SVG Export Plug-In . SVG Version: 6.00 Build 0)  -->
<svg version="1.1" id="Layer_1" xmlns="http://www.w3.org/2000/svg" xmlns:xlink="http://www.w3.org/1999/xlink" x="0px" y="0px"
	 viewBox="0 0 1920 2200" style="enable-background:new 0 0 1920 2200;" xml:space="preserve">
<style type="text/css">
	.st0{fill:#F1F1F1;}
</style>
<g>
	<path class="st0" d="M0,0v2200h1920V0H0z M897.3,342c8.3,0,15,6.7,15,15c0,8.3-6.7,15-15,15s-15-6.7-15-15
		C882.3,348.7,889.1,342,897.3,342z M831.3,342c8.3,0,15,6.7,15,15c0,8.3-6.7,15-15,15s-15-6.7-15-15
		C816.3,348.7,823.1,342,831.3,342z M458,620c-29.8,0-61.8-11.1-85.5-32.9l31.1-37.8c16.3,13.8,37.5,23.4,55.7,23.4
		c20.3,0,29.8-7.7,29.8-20c0-13.2-12.6-17.5-32.3-25.8l-29.2-12.3c-24-9.5-46.4-29.5-46.4-62.7c0-38.4,34.4-69.2,83-69.2
		c26.5,0,54.4,10.2,74.4,30.1l-27.4,34.4c-15.1-11.4-29.2-17.5-47.1-17.5c-16.9,0-27.4,6.8-27.4,19.1c0,12.6,14.5,17.5,34.8,25.5
		l28.6,11.4c28.3,11.4,45.2,30.5,45.2,62.7C545.4,586.5,513.4,620,458,620z M737.9,432.4h-62.1v183.3h-55.1V432.4h-61.8v-45.5h179
		V432.4z M956.6,508c0,77.2-30.8,112-91.7,112c-61.2,0-92.9-34.8-92.9-112V386.8h54.8v127c0,43.4,12.9,58.8,38.1,58.8
		c24.9,0,38.8-15.4,38.8-58.8v-127h52.9V508z M1075.3,620c-29.8,0-61.8-11.1-85.5-32.9l31.1-37.8c16.3,13.8,37.5,23.4,55.7,23.4
		c20.3,0,29.8-7.7,29.8-20c0-13.2-12.6-17.5-32.3-25.8l-29.2-12.3c-24-9.5-46.4-29.5-46.4-62.7c0-38.4,34.4-69.2,83-69.2
		c26.5,0,54.4,10.2,74.4,30.1l-27.4,34.4c-15.1-11.4-29.2-17.5-47.1-17.5c-16.9,0-27.4,6.8-27.4,19.1c0,12.6,14.5,17.5,34.8,25.5
		l28.6,11.4c28.3,11.4,45.2,30.5,45.2,62.7C1162.7,586.5,1130.7,620,1075.3,620z M1265.1,620c-29.8,0-61.8-11.1-85.5-32.9l31.1-37.8
		c16.3,13.8,37.5,23.4,55.7,23.4c20.3,0,29.8-7.7,29.8-20c0-13.2-12.6-17.5-32.3-25.8l-29.2-12.3c-24-9.5-46.4-29.5-46.4-62.7
		c0-38.4,34.4-69.2,83-69.2c26.5,0,54.4,10.2,74.4,30.1l-27.4,34.4c-15.1-11.4-29.2-17.5-47.1-17.5c-16.9,0-27.4,6.8-27.4,19.1
		c0,12.6,14.5,17.5,34.8,25.5l28.6,11.4c28.3,11.4,45.2,30.5,45.2,62.7C1352.5,586.5,1320.5,620,1265.1,620z M1478.3,534.8v80.9
		h-54.8v-80.9l-68.9-147.9h58.4l19.1,50.8c6.2,17.2,12,33.2,18.5,51.1h1.2c6.5-17.8,12.6-33.8,19.1-51.1l19.1-50.8h57.5
		L1478.3,534.8z"/>
</g>
</svg>
